<?xml version="1.0" encoding="UTF-8" standalone="no"?>
<svg xmlns="http://www.w3.org/2000/svg" xmlns:xlink="http://www.w3.org/1999/xlink" contentStyleType="text/css" height="556px" preserveAspectRatio="none" style="width:315px;height:556px;background:#FFFFFF;" version="1.1" viewBox="0 0 315 556" width="315px" zoomAndPan="magnify"><defs/><g><!--MD5=[b0626b1ad99a7e102d8a3f3f6852bc37]
cluster br.com.srmourasilva.desafio.model--><g id="cluster_br.com.srmourasilva.desafio.model"><path d="M8.5,6 L295.5,6 A3.75,3.75 0 0 1 298,8.5 L305,28.2969 L305.5,28.2969 A2.5,2.5 0 0 1 308,30.7969 L308,546.5 A2.5,2.5 0 0 1 305.5,549 L8.5,549 A2.5,2.5 0 0 1 6,546.5 L6,8.5 A2.5,2.5 0 0 1 8.5,6 " fill="none" style="stroke:#000000;stroke-width:1.5;"/><line style="stroke:#000000;stroke-width:1.5;" x1="6" x2="305" y1="28.2969" y2="28.2969"/><text fill="#000000" font-family="sans-serif" font-size="14" font-weight="bold" lengthAdjust="spacing" textLength="286" x="10" y="20.9951">br.com.srmourasilva.desafio.model</text></g><!--MD5=[4ee22a00a2e8799987080c87c3b2f903]
class br.com.srmourasilva.desafio.model.User--><g id="elem_br.com.srmourasilva.desafio.model.User"><rect codeLine="1" fill="#F1F1F1" height="162.0781" id="br.com.srmourasilva.desafio.model.User" rx="2.5" ry="2.5" style="stroke:#181818;stroke-width:0.5;" width="142" x="86" y="41"/><ellipse cx="137.25" cy="57" fill="#ADD1B2" rx="11" ry="11" style="stroke:#181818;stroke-width:1.0;"/><path d="M139.5938,52.6719 C138.6563,52.2344 138.0625,52.0938 137.1875,52.0938 C134.5625,52.0938 132.5625,54.1719 132.5625,56.8906 L132.5625,58.0156 C132.5625,60.5938 134.6719,62.4844 137.5625,62.4844 C138.7813,62.4844 139.9375,62.1875 140.6875,61.6406 C141.2656,61.2344 141.5938,60.7813 141.5938,60.3906 C141.5938,59.9375 141.2031,59.5469 140.7344,59.5469 C140.5156,59.5469 140.3125,59.625 140.125,59.8125 C139.6719,60.2969 139.6719,60.2969 139.4844,60.3906 C139.0625,60.6563 138.375,60.7813 137.6094,60.7813 C135.5625,60.7813 134.2656,59.6875 134.2656,57.9844 L134.2656,56.8906 C134.2656,55.1094 135.5156,53.7969 137.25,53.7969 C137.8281,53.7969 138.4375,53.9531 138.9063,54.2031 C139.3906,54.4844 139.5625,54.7031 139.6563,55.1094 C139.7188,55.5156 139.75,55.6406 139.8906,55.7656 C140.0313,55.9063 140.2656,56.0156 140.4844,56.0156 C140.75,56.0156 141.0156,55.875 141.1875,55.6563 C141.2969,55.5 141.3281,55.3125 141.3281,54.8906 L141.3281,53.4688 C141.3281,53.0313 141.3125,52.9063 141.2188,52.75 C141.0625,52.4844 140.7813,52.3438 140.4844,52.3438 C140.1875,52.3438 139.9844,52.4375 139.7656,52.75 L139.5938,52.6719 Z " fill="#000000"/><text fill="#000000" font-family="sans-serif" font-size="14" lengthAdjust="spacing" textLength="31" x="157.75" y="61.8467">User</text><line style="stroke:#181818;stroke-width:0.5;" x1="87" x2="227" y1="73" y2="73"/><rect fill="none" height="6" style="stroke:#C82930;stroke-width:1.0;" width="6" x="94" y="83.6484"/><text fill="#000000" font-family="sans-serif" font-size="14" lengthAdjust="spacing" textLength="61" x="106" y="89.9951">String id</text><rect fill="none" height="6" style="stroke:#C82930;stroke-width:1.0;" width="6" x="94" y="99.9453"/><text fill="#000000" font-family="sans-serif" font-size="14" lengthAdjust="spacing" textLength="111" x="106" y="106.292">String fullName</text><rect fill="none" height="6" style="stroke:#C82930;stroke-width:1.0;" width="6" x="94" y="116.2422"/><text fill="#000000" font-family="sans-serif" font-size="14" lengthAdjust="spacing" textLength="87" x="106" y="122.5889">String email</text><rect fill="none" height="6" style="stroke:#C82930;stroke-width:1.0;" width="6" x="94" y="132.5391"/><text fill="#000000" font-family="sans-serif" font-size="14" lengthAdjust="spacing" textLength="115" x="106" y="138.8857">String password</text><rect fill="none" height="6" style="stroke:#C82930;stroke-width:1.0;" width="6" x="94" y="148.8359"/><text fill="#000000" font-family="sans-serif" font-size="14" lengthAdjust="spacing" textLength="94" x="106" y="155.1826">String phone</text><rect fill="none" height="6" style="stroke:#C82930;stroke-width:1.0;" width="6" x="94" y="165.1328"/><text fill="#000000" font-family="sans-serif" font-size="14" lengthAdjust="spacing" textLength="116" x="106" y="171.4795">Address address</text><rect fill="none" height="6" style="stroke:#C82930;stroke-width:1.0;" width="6" x="94" y="181.4297"/><text fill="#000000" font-family="sans-serif" font-size="14" lengthAdjust="spacing" textLength="99" x="106" y="187.7764">Profile profile</text><line style="stroke:#181818;stroke-width:0.5;" x1="87" x2="227" y1="195.0781" y2="195.0781"/></g><!--MD5=[6215f77af06ca32167784075c78ae81e]
class br.com.srmourasilva.desafio.model.Street--><g id="elem_br.com.srmourasilva.desafio.model.Street"><rect codeLine="12" fill="#F1F1F1" height="113.1875" id="br.com.srmourasilva.desafio.model.Street" rx="2.5" ry="2.5" style="stroke:#181818;stroke-width:0.5;" width="167" x="35.5" y="420"/><ellipse cx="91.25" cy="436" fill="#ADD1B2" rx="11" ry="11" style="stroke:#181818;stroke-width:1.0;"/><path d="M93.5938,431.6719 C92.6563,431.2344 92.0625,431.0938 91.1875,431.0938 C88.5625,431.0938 86.5625,433.1719 86.5625,435.8906 L86.5625,437.0156 C86.5625,439.5938 88.6719,441.4844 91.5625,441.4844 C92.7813,441.4844 93.9375,441.1875 94.6875,440.6406 C95.2656,440.2344 95.5938,439.7813 95.5938,439.3906 C95.5938,438.9375 95.2031,438.5469 94.7344,438.5469 C94.5156,438.5469 94.3125,438.625 94.125,438.8125 C93.6719,439.2969 93.6719,439.2969 93.4844,439.3906 C93.0625,439.6563 92.375,439.7813 91.6094,439.7813 C89.5625,439.7813 88.2656,438.6875 88.2656,436.9844 L88.2656,435.8906 C88.2656,434.1094 89.5156,432.7969 91.25,432.7969 C91.8281,432.7969 92.4375,432.9531 92.9063,433.2031 C93.3906,433.4844 93.5625,433.7031 93.6563,434.1094 C93.7188,434.5156 93.75,434.6406 93.8906,434.7656 C94.0313,434.9063 94.2656,435.0156 94.4844,435.0156 C94.75,435.0156 95.0156,434.875 95.1875,434.6563 C95.2969,434.5 95.3281,434.3125 95.3281,433.8906 L95.3281,432.4688 C95.3281,432.0313 95.3125,431.9063 95.2188,431.75 C95.0625,431.4844 94.7813,431.3438 94.4844,431.3438 C94.1875,431.3438 93.9844,431.4375 93.7656,431.75 L93.5938,431.6719 Z " fill="#000000"/><text fill="#000000" font-family="sans-serif" font-size="14" lengthAdjust="spacing" textLength="47" x="111.75" y="440.8467">Street</text><line style="stroke:#181818;stroke-width:0.5;" x1="36.5" x2="201.5" y1="452" y2="452"/><rect fill="none" height="6" style="stroke:#C82930;stroke-width:1.0;" width="6" x="43.5" y="462.6484"/><text fill="#000000" font-family="sans-serif" font-size="14" lengthAdjust="spacing" textLength="107" x="55.5" y="468.9951">String zipCode</text><rect fill="none" height="6" style="stroke:#C82930;stroke-width:1.0;" width="6" x="43.5" y="478.9453"/><text fill="#000000" font-family="sans-serif" font-size="14" lengthAdjust="spacing" textLength="88" x="55.5" y="485.292">String name</text><rect fill="none" height="6" style="stroke:#C82930;stroke-width:1.0;" width="6" x="43.5" y="495.2422"/><text fill="#000000" font-family="sans-serif" font-size="14" lengthAdjust="spacing" textLength="113" x="55.5" y="501.5889">Integer number</text><rect fill="none" height="6" style="stroke:#C82930;stroke-width:1.0;" width="6" x="43.5" y="511.5391"/><text fill="#000000" font-family="sans-serif" font-size="14" lengthAdjust="spacing" textLength="141" x="55.5" y="517.8857">String complement</text><line style="stroke:#181818;stroke-width:0.5;" x1="36.5" x2="201.5" y1="525.1875" y2="525.1875"/></g><!--MD5=[cddef410be528808840e7777614ab83c]
class br.com.srmourasilva.desafio.model.Address--><g id="elem_br.com.srmourasilva.desafio.model.Address"><rect codeLine="18" fill="#F1F1F1" height="96.8906" id="br.com.srmourasilva.desafio.model.Address" rx="2.5" ry="2.5" style="stroke:#181818;stroke-width:0.5;" width="129" x="35.5" y="263"/><ellipse cx="68.5" cy="279" fill="#ADD1B2" rx="11" ry="11" style="stroke:#181818;stroke-width:1.0;"/><path d="M70.8438,274.6719 C69.9063,274.2344 69.3125,274.0938 68.4375,274.0938 C65.8125,274.0938 63.8125,276.1719 63.8125,278.8906 L63.8125,280.0156 C63.8125,282.5938 65.9219,284.4844 68.8125,284.4844 C70.0313,284.4844 71.1875,284.1875 71.9375,283.6406 C72.5156,283.2344 72.8438,282.7813 72.8438,282.3906 C72.8438,281.9375 72.4531,281.5469 71.9844,281.5469 C71.7656,281.5469 71.5625,281.625 71.375,281.8125 C70.9219,282.2969 70.9219,282.2969 70.7344,282.3906 C70.3125,282.6563 69.625,282.7813 68.8594,282.7813 C66.8125,282.7813 65.5156,281.6875 65.5156,279.9844 L65.5156,278.8906 C65.5156,277.1094 66.7656,275.7969 68.5,275.7969 C69.0781,275.7969 69.6875,275.9531 70.1563,276.2031 C70.6406,276.4844 70.8125,276.7031 70.9063,277.1094 C70.9688,277.5156 71,277.6406 71.1406,277.7656 C71.2813,277.9063 71.5156,278.0156 71.7344,278.0156 C72,278.0156 72.2656,277.875 72.4375,277.6563 C72.5469,277.5 72.5781,277.3125 72.5781,276.8906 L72.5781,275.4688 C72.5781,275.0313 72.5625,274.9063 72.4688,274.75 C72.3125,274.4844 72.0313,274.3438 71.7344,274.3438 C71.4375,274.3438 71.2344,274.4375 71.0156,274.75 L70.8438,274.6719 Z " fill="#000000"/><text fill="#000000" font-family="sans-serif" font-size="14" lengthAdjust="spacing" textLength="57" x="86.5" y="283.8467">Address</text><line style="stroke:#181818;stroke-width:0.5;" x1="36.5" x2="163.5" y1="295" y2="295"/><rect fill="none" height="6" style="stroke:#C82930;stroke-width:1.0;" width="6" x="43.5" y="305.6484"/><text fill="#000000" font-family="sans-serif" font-size="14" lengthAdjust="spacing" textLength="103" x="55.5" y="311.9951">String country</text><rect fill="none" height="6" style="stroke:#C82930;stroke-width:1.0;" width="6" x="43.5" y="321.9453"/><text fill="#000000" font-family="sans-serif" font-size="14" lengthAdjust="spacing" textLength="86" x="55.5" y="328.292">String state</text><rect fill="none" height="6" style="stroke:#C82930;stroke-width:1.0;" width="6" x="43.5" y="338.2422"/><text fill="#000000" font-family="sans-serif" font-size="14" lengthAdjust="spacing" textLength="96" x="55.5" y="344.5889">Street street</text><line style="stroke:#181818;stroke-width:0.5;" x1="36.5" x2="163.5" y1="351.8906" y2="351.8906"/></g><!--MD5=[d90ee970625adf56e05968e282afb9e2]
class br.com.srmourasilva.desafio.model.Profile--><g id="elem_br.com.srmourasilva.desafio.model.Profile"><rect codeLine="23" fill="#F1F1F1" height="80.5938" id="br.com.srmourasilva.desafio.model.Profile" rx="2.5" ry="2.5" style="stroke:#181818;stroke-width:0.5;" width="79" x="199.5" y="271"/><ellipse cx="214.5" cy="287" fill="#EB937F" rx="11" ry="11" style="stroke:#181818;stroke-width:1.0;"/><path d="M213.2969,287.875 L214.75,287.875 L214.75,287.9844 C214.75,288.3906 214.7813,288.5469 214.8594,288.7031 C215.0156,288.9531 215.2969,289.1094 215.5938,289.1094 C215.8438,289.1094 216.1094,288.9688 216.2656,288.75 C216.3906,288.5938 216.4219,288.4375 216.4219,287.9844 L216.4219,286.0625 C216.4219,285.9063 216.4219,285.8594 216.4063,285.7031 C216.3438,285.2344 216.0313,284.9219 215.5781,284.9219 C215.3281,284.9219 215.0625,285.0625 214.8906,285.2813 C214.7813,285.4531 214.75,285.6094 214.75,286.0625 L214.75,286.1875 L213.2969,286.1875 L213.2969,283.7813 L217.2813,283.7813 L217.2813,284.6406 C217.2813,285.0469 217.3125,285.2188 217.3906,285.375 C217.5625,285.625 217.8438,285.7813 218.125,285.7813 C218.3906,285.7813 218.6563,285.6406 218.8281,285.4219 C218.9375,285.25 218.9688,285.1094 218.9688,284.6406 L218.9688,282.0938 L211.3438,282.0938 C210.9063,282.0938 210.7813,282.1094 210.625,282.2031 C210.375,282.3594 210.2188,282.6563 210.2188,282.9375 C210.2188,283.2188 210.3594,283.4688 210.5781,283.6406 C210.7344,283.75 210.9219,283.7813 211.3438,283.7813 L211.5938,283.7813 L211.5938,290.2969 L211.3438,290.2969 C210.9375,290.2969 210.7813,290.3125 210.625,290.4219 C210.375,290.5938 210.2188,290.8594 210.2188,291.1563 C210.2188,291.4219 210.3594,291.6719 210.5781,291.8281 C210.7188,291.9531 210.9531,292 211.3438,292 L219.3438,292 L219.3438,289.4219 C219.3438,288.9844 219.3125,288.8438 219.2344,288.6875 C219.0625,288.4375 218.7813,288.2813 218.5,288.2813 C218.2344,288.2813 217.9688,288.3906 217.7969,288.6406 C217.6875,288.7969 217.6563,288.9375 217.6563,289.4219 L217.6563,290.2969 L213.2969,290.2969 L213.2969,287.875 Z " fill="#000000"/><text fill="#000000" font-family="sans-serif" font-size="14" lengthAdjust="spacing" textLength="47" x="228.5" y="291.8467">Profile</text><line style="stroke:#181818;stroke-width:0.5;" x1="200.5" x2="277.5" y1="303" y2="303"/><ellipse cx="210.5" cy="316.6484" fill="none" rx="3" ry="3" style="stroke:#038048;stroke-width:1.0;"/><text fill="#000000" font-family="sans-serif" font-size="14" lengthAdjust="spacing" textLength="47" x="219.5" y="319.9951">ADMIN</text><ellipse cx="210.5" cy="332.9453" fill="none" rx="3" ry="3" style="stroke:#038048;stroke-width:1.0;"/><text fill="#000000" font-family="sans-serif" font-size="14" lengthAdjust="spacing" textLength="37" x="219.5" y="336.292">USER</text><line style="stroke:#181818;stroke-width:0.5;" x1="200.5" x2="277.5" y1="343.5938" y2="343.5938"/></g><!--MD5=[82d15a73e7b98a2446c9930c0aadcab9]
link br.com.srmourasilva.desafio.model.User to br.com.srmourasilva.desafio.model.Address--><g id="link_br.com.srmourasilva.desafio.model.User_br.com.srmourasilva.desafio.model.Address"><path codeLine="29" d="M132.662,203.061 C127.04,221.552 121.198,240.77 116.035,257.753 " fill="none" id="br.com.srmourasilva.desafio.model.User-to-br.com.srmourasilva.desafio.model.Address" style="stroke:#181818;stroke-width:1.0;"/><polygon fill="#181818" points="114.456,262.948,120.9012,255.5009,115.9106,258.1643,113.2472,253.1736,114.456,262.948" style="stroke:#181818;stroke-width:1.0;"/></g><!--MD5=[612aa768e36d60920cec430fcf38f491]
link br.com.srmourasilva.desafio.model.Address to br.com.srmourasilva.desafio.model.Street--><g id="link_br.com.srmourasilva.desafio.model.Address_br.com.srmourasilva.desafio.model.Street"><path codeLine="30" d="M105.547,360.085 C107.539,377.177 109.814,396.692 111.919,414.751 " fill="none" id="br.com.srmourasilva.desafio.model.Address-to-br.com.srmourasilva.desafio.model.Street" style="stroke:#181818;stroke-width:1.0;"/><polygon fill="#181818" points="112.508,419.803,115.4399,410.4006,111.9295,414.8366,107.4936,411.3262,112.508,419.803" style="stroke:#181818;stroke-width:1.0;"/></g><!--MD5=[bce50b6e9184506dd6954362781a034a]
link br.com.srmourasilva.desafio.model.User to br.com.srmourasilva.desafio.model.Profile--><g id="link_br.com.srmourasilva.desafio.model.User_br.com.srmourasilva.desafio.model.Profile"><path codeLine="31" d="M192.013,203.061 C201.484,224.716 211.39,247.367 219.651,266.257 " fill="none" id="br.com.srmourasilva.desafio.model.User-to-br.com.srmourasilva.desafio.model.Profile" style="stroke:#181818;stroke-width:1.0;"/><polygon fill="#181818" points="221.715,270.976,221.775,261.1273,219.7122,266.3947,214.4448,264.3318,221.715,270.976" style="stroke:#181818;stroke-width:1.0;"/></g><!--MD5=[a09a657c443d3dda20c857c0eebc0cab]
@startuml
class br.com.srmourasilva.desafio.model.User {
- String id
- String fullName
- String email
- String password
- String phone
- Address address
- Profile profile
}


class br.com.srmourasilva.desafio.model.Street {
- String zipCode
- String name
- Integer number
- String complement
}
class br.com.srmourasilva.desafio.model.Address {
- String country
- String state
- Street street
}
enum br.com.srmourasilva.desafio.model.Profile {
+  ADMIN
+  USER
}


br.com.srmourasilva.desafio.model.User- ->br.com.srmourasilva.desafio.model.Address
br.com.srmourasilva.desafio.model.Address- ->br.com.srmourasilva.desafio.model.Street
br.com.srmourasilva.desafio.model.User- ->br.com.srmourasilva.desafio.model.Profile
@enduml

PlantUML version 1.2022.14beta4(Unknown compile time)
(GPL source distribution)
Java Runtime: Java(TM) SE Runtime Environment
JVM: Java HotSpot(TM) 64-Bit Server VM
Default Encoding: UTF-8
Language: en
Country: US
--></g></svg>